<svg xmlns="http://www.w3.org/2000/svg" xmlns:xlink="http://www.w3.org/1999/xlink" width="3840" zoomAndPan="magnify" viewBox="0 0 2880 1619.99993" height="2160" preserveAspectRatio="xMidYMid meet" version="1.0"><defs><clipPath id="f3e607e993"><path d="M 892 146 L 2178.835938 146 L 2178.835938 1610.25 L 892 1610.25 Z M 892 146 " clip-rule="nonzero"/></clipPath><clipPath id="3cdb8820e8"><path d="M 701.335938 176 L 2178.835938 176 L 2178.835938 1610.25 L 701.335938 1610.25 Z M 701.335938 176 " clip-rule="nonzero"/></clipPath></defs><path stroke-linecap="butt" transform="matrix(4.732176, 0, 0, 4.731854, 704.46761, 1.419536)" fill-opacity="1" fill="#097c05" fill-rule="nonzero" stroke-linejoin="round" d="M 146.429637 104.699815 C 159.380372 69.209793 181.659697 36.639643 203.720273 4.49959 C 208.579791 28.519807 229.9899 46.849701 233.929849 71.069695 C 235.640214 81.600055 233.900132 92.610044 230.799682 103.219654 C 219.650114 141.390146 191.33003 175.020267 158.630023 201.499715 C 146.779635 211.099712 145.119623 208.789901 141.120241 196.459902 C 137.929815 186.609772 136.259897 176.299826 135.870278 165.850367 C 135.100118 145.430252 139.180396 124.580039 146.419732 104.699815 Z M 146.429637 104.699815 " stroke="#32013a" stroke-width="9" stroke-opacity="1" stroke-miterlimit="4"/><path fill="#7ded7a" d="M 1660.554688 70.03125 L 1390.824219 779.808594 C 1397.449219 777.492188 1565.296875 818.230469 1582.664062 801.71875 C 1679.816406 709.210938 1761.257812 588.40625 1787.140625 446.167969 C 1794.335938 406.609375 1788.515625 332.933594 1780.46875 292.523438 C 1762.109375 200.300781 1696.09375 154.636719 1660.605469 70.078125 Z M 1660.554688 70.03125 " fill-opacity="1" fill-rule="nonzero"/><path stroke-linecap="butt" transform="matrix(4.732176, 0, 0, 4.731854, 704.46761, 1.419536)" fill-opacity="1" fill="#097c05" fill-rule="nonzero" stroke-linejoin="round" d="M 53.86024 144.110242 C 32.170298 113.180404 18.219924 76.259752 4.499855 39.770023 C 26.979768 49.540077 54.259766 42.470306 76.379775 53.109635 C 85.989849 57.730082 94.019982 65.460272 100.949768 74.080374 C 125.859853 105.069649 137.22982 147.540286 140.219657 189.509831 C 141.300192 204.720077 138.459764 204.769608 126.059615 200.979636 C 116.149897 197.959876 106.750317 193.42033 97.95993 187.769631 C 80.769603 176.710111 66.010273 161.429696 53.870146 144.110242 Z M 53.86024 144.110242 " stroke="#32013a" stroke-width="9" stroke-opacity="1" stroke-miterlimit="4"/><path fill="#7ded7a" d="M 761.207031 222.726562 L 1319.839844 898.105469 C 1322.394531 888.972656 1355.332031 877.332031 1352.964844 846.054688 C 1339.855469 671.214844 1270.199219 495.234375 1164.957031 365.820312 C 1135.710938 329.859375 1085.882812 283.390625 1045.375 264.039062 C 953 219.84375 858.738281 242.175781 761.207031 222.726562 Z M 761.207031 222.726562 " fill-opacity="1" fill-rule="nonzero"/><path fill="#73057c" d="M 2147.875 1045.597656 C 2129.375 1246.890625 1995.3125 1394.289062 1792.867188 1386.667969 C 1590.425781 1379.050781 1441.265625 1209.699219 1459.769531 1008.453125 C 1478.273438 807.160156 1626.675781 705.140625 1829.164062 712.757812 C 2031.652344 720.378906 2166.425781 844.351562 2147.875 1045.597656 Z M 2147.875 1045.597656 " fill-opacity="1" fill-rule="nonzero"/><g clip-path="url(#f3e607e993)"><path stroke-linecap="butt" transform="matrix(4.732176, 0, 0, 4.731854, 704.46761, 1.419536)" fill="none" stroke-linejoin="miter" d="M 305.019798 220.66999 C 301.110391 263.209971 272.780401 294.360223 229.999805 292.749629 C 187.220035 291.139861 155.699619 255.350174 159.609851 212.8201 C 163.520083 170.280119 194.880359 148.719957 237.670035 150.329725 C 280.459711 151.940319 308.939935 178.139915 305.019798 220.66999 Z M 305.019798 220.66999 " stroke="#32013a" stroke-width="8.45" stroke-opacity="1" stroke-miterlimit="10"/></g><path fill="#440f4c" d="M 2066.433594 1135.410156 C 2030.519531 1225.835938 1905.492188 1317.015625 1847.195312 1301.875 C 1788.894531 1286.734375 1905.683594 1158.359375 1941.601562 1067.933594 C 1977.515625 977.507812 1954.425781 872.175781 2012.726562 887.363281 C 2071.027344 902.507812 2102.351562 1044.984375 2066.433594 1135.40625 Z M 2066.433594 1135.410156 " fill-opacity="0.71" fill-rule="nonzero"/><path fill="#e4c3ea" d="M 1794.761719 857.082031 C 1807.867188 842.507812 1817.238281 824.242188 1823.058594 804.367188 C 1828.878906 784.492188 1812.410156 765.992188 1790.027344 766.371094 C 1762.203125 766.84375 1732.675781 773.988281 1712.375 780.707031 C 1681.757812 790.835938 1649.765625 805.597656 1627.761719 828.167969 C 1610.585938 845.773438 1605.144531 867.726562 1606.183594 890.296875 C 1606.324219 893.089844 1606.5625 896.023438 1606.941406 899.050781 C 1609.164062 916.558594 1627.476562 928.390625 1646.929688 924.933594 C 1705.796875 914.527344 1764.804688 890.34375 1794.761719 857.082031 Z M 1794.761719 857.082031 " fill-opacity="0.31" fill-rule="nonzero"/><path fill="#73057c" d="M 1774.128906 1183.625 C 1774.128906 1190.257812 1773.960938 1196.890625 1773.625 1203.515625 C 1773.289062 1210.140625 1772.785156 1216.753906 1772.113281 1223.355469 C 1771.441406 1229.957031 1770.601562 1236.539062 1769.597656 1243.101562 C 1768.589844 1249.660156 1767.417969 1256.195312 1766.082031 1262.703125 C 1764.746094 1269.207031 1763.242188 1275.679688 1761.578125 1282.113281 C 1759.914062 1288.546875 1758.085938 1294.9375 1756.09375 1301.289062 C 1754.105469 1307.636719 1751.957031 1313.933594 1749.648438 1320.175781 C 1747.339844 1326.421875 1744.871094 1332.609375 1742.25 1338.738281 C 1739.625 1344.867188 1736.851562 1350.929688 1733.917969 1356.925781 C 1730.988281 1362.921875 1727.910156 1368.847656 1724.675781 1374.699219 C 1721.445312 1380.546875 1718.070312 1386.316406 1714.546875 1392.007812 C 1711.023438 1397.695312 1707.355469 1403.300781 1703.546875 1408.816406 C 1699.742188 1414.332031 1695.796875 1419.753906 1691.710938 1425.082031 C 1687.628906 1430.410156 1683.414062 1435.636719 1679.066406 1440.765625 C 1674.71875 1445.890625 1670.242188 1450.914062 1665.640625 1455.828125 C 1661.035156 1460.746094 1656.3125 1465.546875 1651.464844 1470.238281 C 1646.617188 1474.929688 1641.65625 1479.5 1636.578125 1483.957031 C 1631.5 1488.410156 1626.3125 1492.742188 1621.011719 1496.949219 C 1615.714844 1501.160156 1610.3125 1505.238281 1604.808594 1509.191406 C 1599.304688 1513.140625 1593.703125 1516.960938 1588.003906 1520.644531 C 1582.304688 1524.332031 1576.515625 1527.878906 1570.636719 1531.289062 C 1564.757812 1534.699219 1558.796875 1537.96875 1552.75 1541.09375 C 1546.707031 1544.222656 1540.585938 1547.203125 1534.390625 1550.039062 C 1528.195312 1552.875 1521.929688 1555.5625 1515.597656 1558.101562 C 1509.265625 1560.640625 1502.871094 1563.027344 1496.417969 1565.261719 C 1489.964844 1567.496094 1483.460938 1569.578125 1476.902344 1571.503906 C 1470.34375 1573.429688 1463.738281 1575.195312 1457.089844 1576.808594 C 1450.441406 1578.421875 1443.757812 1579.875 1437.035156 1581.167969 C 1430.3125 1582.460938 1423.5625 1583.597656 1416.78125 1584.570312 C 1410 1585.542969 1403.203125 1586.355469 1396.378906 1587.003906 C 1389.558594 1587.65625 1382.726562 1588.144531 1375.878906 1588.46875 C 1369.035156 1588.792969 1362.183594 1588.957031 1355.332031 1588.957031 C 1348.476562 1588.957031 1341.628906 1588.792969 1334.78125 1588.46875 C 1327.9375 1588.144531 1321.101562 1587.65625 1314.28125 1587.003906 C 1307.460938 1586.355469 1300.660156 1585.542969 1293.878906 1584.570312 C 1287.101562 1583.597656 1280.351562 1582.460938 1273.628906 1581.167969 C 1266.90625 1579.875 1260.21875 1578.421875 1253.570312 1576.808594 C 1246.921875 1575.195312 1240.320312 1573.429688 1233.761719 1571.503906 C 1227.203125 1569.578125 1220.695312 1567.496094 1214.242188 1565.261719 C 1207.789062 1563.027344 1201.394531 1560.640625 1195.0625 1558.101562 C 1188.730469 1555.5625 1182.46875 1552.875 1176.273438 1550.039062 C 1170.074219 1547.203125 1163.957031 1544.222656 1157.910156 1541.09375 C 1151.867188 1537.96875 1145.90625 1534.699219 1140.027344 1531.289062 C 1134.148438 1527.878906 1128.359375 1524.332031 1122.660156 1520.644531 C 1116.960938 1516.960938 1111.359375 1513.140625 1105.855469 1509.191406 C 1100.347656 1505.238281 1094.945312 1501.160156 1089.648438 1496.949219 C 1084.351562 1492.742188 1079.164062 1488.410156 1074.082031 1483.957031 C 1069.003906 1479.5 1064.042969 1474.929688 1059.195312 1470.238281 C 1054.351562 1465.546875 1049.625 1460.746094 1045.023438 1455.828125 C 1040.417969 1450.914062 1035.945312 1445.890625 1031.597656 1440.765625 C 1027.246094 1435.636719 1023.03125 1430.410156 1018.949219 1425.082031 C 1014.867188 1419.753906 1010.921875 1414.332031 1007.113281 1408.816406 C 1003.304688 1403.300781 999.640625 1397.695312 996.117188 1392.007812 C 992.59375 1386.316406 989.214844 1380.546875 985.984375 1374.699219 C 982.753906 1368.847656 979.671875 1362.921875 976.742188 1356.925781 C 973.8125 1350.929688 971.035156 1344.867188 968.414062 1338.738281 C 965.789062 1332.609375 963.324219 1326.421875 961.015625 1320.175781 C 958.707031 1313.933594 956.554688 1307.636719 954.566406 1301.285156 C 952.578125 1294.9375 950.75 1288.546875 949.085938 1282.113281 C 947.417969 1275.679688 945.917969 1269.207031 944.582031 1262.703125 C 943.242188 1256.195312 942.070312 1249.660156 941.066406 1243.101562 C 940.0625 1236.539062 939.222656 1229.957031 938.550781 1223.355469 C 937.878906 1216.753906 937.375 1210.140625 937.039062 1203.515625 C 936.703125 1196.890625 936.535156 1190.257812 936.535156 1183.625 C 936.535156 1176.992188 936.703125 1170.363281 937.039062 1163.738281 C 937.375 1157.113281 937.878906 1150.496094 938.550781 1143.898438 C 939.222656 1137.296875 940.0625 1130.714844 941.066406 1124.152344 C 942.070312 1117.589844 943.242188 1111.054688 944.582031 1104.550781 C 945.917969 1098.042969 947.417969 1091.574219 949.085938 1085.136719 C 950.75 1078.703125 952.578125 1072.3125 954.566406 1065.964844 C 956.554688 1059.617188 958.707031 1053.320312 961.015625 1047.074219 C 963.324219 1040.828125 965.789062 1034.640625 968.414062 1028.511719 C 971.035156 1022.382812 973.8125 1016.320312 976.742188 1010.324219 C 979.671875 1004.328125 982.753906 998.40625 985.984375 992.554688 C 989.214844 986.703125 992.59375 980.933594 996.117188 975.246094 C 999.640625 969.554688 1003.304688 963.953125 1007.113281 958.4375 C 1010.921875 952.921875 1014.867188 947.5 1018.949219 942.171875 C 1023.03125 936.84375 1027.246094 931.613281 1031.597656 926.488281 C 1035.945312 921.359375 1040.417969 916.335938 1045.023438 911.421875 C 1049.625 906.507812 1054.351562 901.703125 1059.195312 897.015625 C 1064.042969 892.324219 1069.003906 887.75 1074.082031 883.296875 C 1079.164062 878.839844 1084.351562 874.507812 1089.648438 870.300781 C 1094.945312 866.09375 1100.347656 862.011719 1105.855469 858.0625 C 1111.359375 854.109375 1116.960938 850.292969 1122.660156 846.605469 C 1128.359375 842.921875 1134.148438 839.371094 1140.027344 835.960938 C 1145.90625 832.550781 1151.867188 829.28125 1157.910156 826.15625 C 1163.957031 823.027344 1170.074219 820.046875 1176.273438 817.210938 C 1182.46875 814.375 1188.730469 811.6875 1195.0625 809.148438 C 1201.394531 806.609375 1207.789062 804.222656 1214.242188 801.988281 C 1220.695312 799.753906 1227.203125 797.675781 1233.761719 795.75 C 1240.320312 793.824219 1246.921875 792.054688 1253.570312 790.441406 C 1260.21875 788.832031 1266.90625 787.378906 1273.628906 786.082031 C 1280.351562 784.789062 1287.101562 783.65625 1293.878906 782.683594 C 1300.660156 781.707031 1307.460938 780.898438 1314.28125 780.246094 C 1321.101562 779.597656 1327.9375 779.109375 1334.78125 778.785156 C 1341.628906 778.457031 1348.476562 778.296875 1355.332031 778.296875 C 1362.183594 778.296875 1369.035156 778.457031 1375.878906 778.785156 C 1382.726562 779.109375 1389.558594 779.597656 1396.378906 780.246094 C 1403.203125 780.898438 1410 781.707031 1416.78125 782.683594 C 1423.5625 783.65625 1430.3125 784.789062 1437.035156 786.082031 C 1443.757812 787.378906 1450.441406 788.832031 1457.089844 790.441406 C 1463.738281 792.054688 1470.34375 793.824219 1476.902344 795.75 C 1483.460938 797.675781 1489.964844 799.753906 1496.417969 801.988281 C 1502.871094 804.222656 1509.265625 806.609375 1515.597656 809.148438 C 1521.929688 811.6875 1528.195312 814.375 1534.390625 817.210938 C 1540.585938 820.046875 1546.707031 823.027344 1552.75 826.15625 C 1558.796875 829.28125 1564.757812 832.550781 1570.636719 835.960938 C 1576.515625 839.371094 1582.304688 842.921875 1588.003906 846.605469 C 1593.703125 850.292969 1599.304688 854.109375 1604.808594 858.0625 C 1610.3125 862.011719 1615.714844 866.09375 1621.011719 870.300781 C 1626.3125 874.507812 1631.5 878.839844 1636.578125 883.296875 C 1641.65625 887.75 1646.617188 892.324219 1651.464844 897.015625 C 1656.3125 901.703125 1661.035156 906.507812 1665.640625 911.421875 C 1670.242188 916.335938 1674.71875 921.359375 1679.066406 926.488281 C 1683.414062 931.613281 1687.628906 936.84375 1691.710938 942.171875 C 1695.796875 947.5 1699.742188 952.921875 1703.546875 958.4375 C 1707.355469 963.953125 1711.023438 969.554688 1714.546875 975.246094 C 1718.070312 980.933594 1721.445312 986.703125 1724.675781 992.554688 C 1727.910156 998.40625 1730.988281 1004.328125 1733.917969 1010.324219 C 1736.851562 1016.320312 1739.625 1022.382812 1742.25 1028.511719 C 1744.871094 1034.640625 1747.339844 1040.828125 1749.648438 1047.074219 C 1751.957031 1053.320312 1754.105469 1059.617188 1756.09375 1065.964844 C 1758.085938 1072.3125 1759.914062 1078.703125 1761.578125 1085.136719 C 1763.242188 1091.574219 1764.746094 1098.042969 1766.082031 1104.550781 C 1767.417969 1111.054688 1768.589844 1117.589844 1769.597656 1124.152344 C 1770.601562 1130.714844 1771.441406 1137.296875 1772.113281 1143.898438 C 1772.785156 1150.496094 1773.289062 1157.113281 1773.625 1163.738281 C 1773.960938 1170.363281 1774.128906 1176.992188 1774.128906 1183.625 Z M 1774.128906 1183.625 " fill-opacity="1" fill-rule="nonzero"/><g clip-path="url(#3cdb8820e8)"><path stroke-linecap="butt" transform="matrix(4.732176, 0, 0, 4.731854, 704.46761, 1.419536)" fill="none" stroke-linejoin="miter" d="M 226.040045 249.839814 C 226.040045 251.241551 226.00455 252.643287 225.93356 254.043373 C 225.86257 255.443458 225.756085 256.841067 225.614105 258.2362 C 225.472125 259.631332 225.29465 261.022337 225.082505 262.409214 C 224.869535 263.795266 224.621895 265.176364 224.339586 266.551684 C 224.057276 267.926179 223.739472 269.294069 223.387824 270.653704 C 223.036175 272.013339 222.649857 273.363893 222.228869 274.706192 C 221.808707 276.047665 221.354701 277.378407 220.866851 278.697591 C 220.379 280.017601 219.857306 281.325228 219.303418 282.620472 C 218.748705 283.915717 218.162624 285.196927 217.542699 286.464104 C 216.9236 287.73128 216.273133 288.983597 215.589647 290.220229 C 214.906987 291.456036 214.193784 292.675332 213.449214 293.878118 C 212.704644 295.080078 211.929531 296.264702 211.124702 297.43034 C 210.320698 298.595977 209.486978 299.741802 208.62354 300.867814 C 207.760928 301.993826 206.870251 303.098374 205.951507 304.182285 C 205.032764 305.26537 204.08678 306.326992 203.114381 307.365498 C 202.141157 308.404831 201.143168 309.419397 200.118765 310.41085 C 199.094362 311.402302 198.04602 312.368163 196.972915 313.310083 C 195.899809 314.251178 194.80359 315.166683 193.683433 316.05577 C 192.564101 316.945683 191.422482 317.807528 190.2594 318.642956 C 189.096319 319.477559 187.912601 320.28492 186.708246 321.063387 C 185.503891 321.84268 184.280551 322.592254 183.038225 323.312935 C 181.795899 324.033616 180.536238 324.724578 179.258416 325.384995 C 177.981421 326.046239 176.687916 326.676112 175.378727 327.275441 C 174.069538 327.87477 172.74549 328.442729 171.40741 328.979319 C 170.06933 329.515908 168.718042 330.020302 167.354373 330.492501 C 165.990703 330.9647 164.616302 331.404703 163.230345 331.811685 C 161.844388 332.218668 160.448525 332.591804 159.043582 332.932744 C 157.638639 333.273685 156.226267 333.580779 154.80564 333.854027 C 153.385013 334.127275 151.958608 334.367502 150.525599 334.573057 C 149.09259 334.778612 147.65628 334.95032 146.214191 335.087357 C 144.772927 335.225219 143.329187 335.32841 141.882146 335.396928 C 140.435929 335.465446 138.988062 335.500118 137.540195 335.500118 C 136.091502 335.500118 134.644461 335.465446 133.197419 335.396928 C 131.751203 335.32841 130.306637 335.225219 128.865374 335.087357 C 127.42411 334.95032 125.986974 334.778612 124.553965 334.573057 C 123.121782 334.367502 121.695377 334.127275 120.27475 333.854027 C 118.854123 333.580779 117.440926 333.273685 116.035983 332.932744 C 114.63104 332.591804 113.236002 332.218668 111.850045 331.811685 C 110.464088 331.404703 109.088862 330.9647 107.725192 330.492501 C 106.361522 330.020302 105.010235 329.515908 103.672155 328.979319 C 102.334074 328.442729 101.010852 327.87477 99.701664 327.275441 C 98.391649 326.676112 97.09897 326.046239 95.821148 325.384995 C 94.544153 324.724578 93.284492 324.033616 92.042165 323.312935 C 90.799839 322.592254 89.576499 321.84268 88.372144 321.063387 C 87.167789 320.28492 85.984071 319.477559 84.82099 318.642956 C 83.657083 317.807528 82.515463 316.945683 81.396132 316.05577 C 80.2768 315.166683 79.180581 314.251178 78.10665 313.310083 C 77.033544 312.368163 75.985203 311.402302 74.960799 310.41085 C 73.937222 309.419397 72.938408 308.404831 71.966009 307.365498 C 70.992785 306.326992 70.047626 305.26537 69.128883 304.182285 C 68.209314 303.098374 67.318636 301.993826 66.456024 300.867814 C 65.593412 299.741802 64.759692 298.595977 63.954863 297.43034 C 63.150033 296.264702 62.375746 295.080078 61.631176 293.878118 C 60.886606 292.675332 60.172578 291.456036 59.489918 290.220229 C 58.807257 288.983597 58.155965 287.73128 57.536865 286.464104 C 56.917766 285.196927 56.33086 283.915717 55.776972 282.620472 C 55.222259 281.325228 54.70139 280.017601 54.213539 278.697591 C 53.725689 277.378407 53.270857 276.047665 52.850695 274.705366 C 52.430533 273.363893 52.044215 272.013339 51.692567 270.653704 C 51.340093 269.294069 51.023114 267.926179 50.740804 266.551684 C 50.45767 265.176364 50.21003 263.795266 49.997885 262.409214 C 49.78574 261.022337 49.608265 259.631332 49.466285 258.2362 C 49.324305 256.841067 49.21782 255.443458 49.14683 254.043373 C 49.07584 252.643287 49.040345 251.241551 49.040345 249.839814 C 49.040345 248.438078 49.07584 247.037167 49.14683 245.637081 C 49.21782 244.236995 49.324305 242.838561 49.466285 241.444254 C 49.608265 240.049122 49.78574 238.658117 49.997885 237.27124 C 50.21003 235.884363 50.45767 234.503264 50.740804 233.12877 C 51.023114 231.75345 51.340093 230.386385 51.692567 229.025925 C 52.044215 227.66629 52.430533 226.315736 52.850695 224.974262 C 53.270857 223.632789 53.725689 222.302047 54.213539 220.982037 C 54.70139 219.662027 55.222259 218.3544 55.776972 217.059156 C 56.33086 215.763912 56.917766 214.482701 57.536865 213.215525 C 58.155965 211.948348 58.807257 210.696857 59.489918 209.460225 C 60.172578 208.223592 60.886606 207.004296 61.631176 205.802336 C 62.375746 204.59955 63.150033 203.415752 63.954863 202.250114 C 64.759692 201.084477 65.593412 199.938652 66.456024 198.81264 C 67.318636 197.686628 68.209314 196.581254 69.128883 195.498169 C 70.047626 194.414258 70.992785 193.352637 71.966009 192.31413 C 72.938408 191.275623 73.937222 190.260231 74.960799 189.269604 C 75.985203 188.278152 77.033544 187.311466 78.10665 186.370371 C 79.180581 185.42845 80.2768 184.512946 81.396132 183.623859 C 82.515463 182.734771 83.657083 181.872101 84.82099 181.037498 C 85.984071 180.202069 87.167789 179.395534 88.372144 178.616241 C 89.576499 177.837774 90.799839 177.087374 92.042165 176.366693 C 93.284492 175.646013 94.544153 174.955051 95.821148 174.294633 C 97.09897 173.63339 98.391649 173.003516 99.701664 172.404187 C 101.010852 171.804858 102.334074 171.236899 103.672155 170.70031 C 105.010235 170.16372 106.361522 169.659326 107.725192 169.187127 C 109.088862 168.714929 110.464088 168.275751 111.850045 167.868769 C 113.236002 167.461786 114.63104 167.087825 116.035983 166.746884 C 117.440926 166.406769 118.854123 166.099675 120.27475 165.825601 C 121.695377 165.552354 123.121782 165.312952 124.553965 165.107397 C 125.986974 164.901017 127.42411 164.730133 128.865374 164.592271 C 130.306637 164.455235 131.751203 164.352044 133.197419 164.283526 C 134.644461 164.214182 136.091502 164.180336 137.540195 164.180336 C 138.988062 164.180336 140.435929 164.214182 141.882146 164.283526 C 143.329187 164.352044 144.772927 164.455235 146.214191 164.592271 C 147.65628 164.730133 149.09259 164.901017 150.525599 165.107397 C 151.958608 165.312952 153.385013 165.552354 154.80564 165.825601 C 156.226267 166.099675 157.638639 166.406769 159.043582 166.746884 C 160.448525 167.087825 161.844388 167.461786 163.230345 167.868769 C 164.616302 168.275751 165.990703 168.714929 167.354373 169.187127 C 168.718042 169.659326 170.06933 170.16372 171.40741 170.70031 C 172.74549 171.236899 174.069538 171.804858 175.378727 172.404187 C 176.687916 173.003516 177.981421 173.63339 179.258416 174.294633 C 180.536238 174.955051 181.795899 175.646013 183.038225 176.366693 C 184.280551 177.087374 185.503891 177.837774 186.708246 178.616241 C 187.912601 179.395534 189.096319 180.202069 190.2594 181.037498 C 191.422482 181.872101 192.564101 182.734771 193.683433 183.623859 C 194.80359 184.512946 195.899809 185.42845 196.972915 186.370371 C 198.04602 187.311466 199.094362 188.278152 200.118765 189.269604 C 201.143168 190.260231 202.141157 191.275623 203.114381 192.31413 C 204.08678 193.352637 205.032764 194.414258 205.951507 195.498169 C 206.870251 196.581254 207.760928 197.686628 208.62354 198.81264 C 209.486978 199.938652 210.320698 201.084477 211.124702 202.250114 C 211.929531 203.415752 212.704644 204.59955 213.449214 205.802336 C 214.193784 207.004296 214.906987 208.223592 215.589647 209.460225 C 216.273133 210.696857 216.9236 211.948348 217.542699 213.215525 C 218.162624 214.482701 218.748705 215.763912 219.303418 217.059156 C 219.857306 218.3544 220.379 219.662027 220.866851 220.982037 C 221.354701 222.302047 221.808707 223.632789 222.228869 224.974262 C 222.649857 226.315736 223.036175 227.66629 223.387824 229.025925 C 223.739472 230.386385 224.057276 231.75345 224.339586 233.12877 C 224.621895 234.503264 224.869535 235.884363 225.082505 237.27124 C 225.29465 238.658117 225.472125 240.049122 225.614105 241.444254 C 225.756085 242.838561 225.86257 244.236995 225.93356 245.637081 C 226.00455 247.037167 226.040045 248.438078 226.040045 249.839814 Z M 226.040045 249.839814 " stroke="#32013a" stroke-width="9" stroke-opacity="1" stroke-miterlimit="10"/></g><path fill="#440f4c" d="M 1007.515625 1304.523438 C 1050.578125 1425.566406 1220.9375 1533.878906 1305.644531 1503.640625 C 1390.347656 1473.40625 1235.132812 1311.8125 1192.070312 1190.769531 C 1149.007812 1069.730469 1191.597656 918.738281 1106.890625 948.972656 C 1022.1875 979.210938 964.453125 1183.484375 1007.515625 1304.523438 Z M 1007.515625 1304.523438 " fill-opacity="0.71" fill-rule="nonzero"/><path fill="#e4c3ea" d="M 1578.074219 929.242188 C 1516.792969 883.910156 1398.0625 885.707031 1367.066406 927.726562 C 1336.070312 969.746094 1465.257812 998.847656 1526.492188 1044.226562 C 1587.777344 1089.554688 1617.445312 1177.097656 1648.441406 1135.078125 C 1679.4375 1093.058594 1639.308594 974.621094 1578.027344 929.289062 Z M 1578.074219 929.242188 " fill-opacity="0.31" fill-rule="nonzero"/></svg>