<svg xmlns="http://www.w3.org/2000/svg" xmlns:xlink="http://www.w3.org/1999/xlink" width="1920" zoomAndPan="magnify" viewBox="0 0 1440 809.999993" height="1080" preserveAspectRatio="xMidYMid meet" version="1.0"><defs><clipPath id="3ad13ca8c2"><path d="M 177 2 L 1263.875 2 L 1263.875 807 L 177 807 Z M 177 2 " clip-rule="nonzero"/></clipPath></defs><g clip-path="url(#3ad13ca8c2)"><path fill="#3a0930" d="M 1249.191406 636.746094 C 1247.53125 633.675781 1245.730469 630.683594 1243.792969 627.773438 C 1241.859375 624.867188 1239.792969 622.050781 1237.597656 619.332031 C 1235.40625 616.613281 1233.089844 614 1230.65625 611.492188 C 1228.222656 608.984375 1225.679688 606.59375 1223.027344 604.320312 C 1220.375 602.046875 1217.625 599.898438 1214.773438 597.878906 C 1211.921875 595.855469 1208.988281 593.96875 1205.964844 592.21875 C 1202.941406 590.464844 1199.84375 588.855469 1196.675781 587.386719 C 1193.503906 585.917969 1190.273438 584.597656 1186.980469 583.425781 C 1176.796875 586.460938 1166.46875 588.898438 1156 590.738281 C 1132.796875 595.214844 1110.886719 599.4375 1090.082031 619.984375 C 1069.234375 640.570312 1062.046875 659.597656 1054.433594 679.746094 C 1049.75 692.148438 1044.90625 704.964844 1036.75 717.765625 C 1037.917969 724.128906 1039.773438 730.28125 1042.320312 736.226562 C 1043.339844 738.671875 1044.441406 741.082031 1045.625 743.453125 C 1046.808594 745.824219 1048.074219 748.148438 1049.417969 750.433594 C 1050.765625 752.714844 1052.1875 754.949219 1053.6875 757.132812 C 1055.1875 759.316406 1056.765625 761.445312 1058.414062 763.519531 C 1060.0625 765.59375 1061.78125 767.609375 1063.570312 769.5625 C 1065.355469 771.519531 1067.210938 773.410156 1069.132812 775.238281 C 1071.050781 777.0625 1073.03125 778.820312 1075.074219 780.511719 C 1077.117188 782.199219 1079.214844 783.816406 1081.367188 785.359375 C 1083.523438 786.902344 1085.726562 788.367188 1087.984375 789.757812 C 1090.238281 791.148438 1092.539062 792.457031 1094.886719 793.6875 C 1097.234375 794.917969 1099.621094 796.066406 1102.046875 797.132812 C 1104.472656 798.195312 1106.933594 799.175781 1109.429688 800.070312 C 1111.921875 800.964844 1114.445312 801.769531 1116.996094 802.488281 C 1119.546875 803.207031 1122.121094 803.835938 1124.714844 804.375 C 1127.308594 804.917969 1129.917969 805.367188 1132.542969 805.722656 C 1135.167969 806.082031 1137.804688 806.351562 1140.449219 806.527344 C 1143.09375 806.703125 1145.738281 806.785156 1148.386719 806.777344 C 1151.039062 806.769531 1153.683594 806.671875 1156.328125 806.480469 C 1158.96875 806.289062 1161.605469 806.003906 1164.226562 805.628906 C 1166.851562 805.257812 1169.457031 804.792969 1172.046875 804.234375 C 1174.640625 803.679688 1177.207031 803.035156 1179.753906 802.300781 C 1182.300781 801.566406 1184.816406 800.746094 1187.308594 799.839844 C 1189.796875 798.929688 1192.25 797.9375 1194.671875 796.855469 C 1197.09375 795.777344 1199.472656 794.617188 1201.8125 793.371094 C 1204.152344 792.128906 1206.445312 790.804688 1208.691406 789.398438 C 1210.941406 787.996094 1213.136719 786.515625 1215.28125 784.960938 C 1217.425781 783.40625 1219.515625 781.777344 1221.546875 780.074219 C 1223.578125 778.375 1225.546875 776.605469 1227.457031 774.765625 C 1229.367188 772.929688 1231.210938 771.027344 1232.984375 769.0625 C 1234.761719 767.097656 1236.46875 765.070312 1238.105469 762.988281 C 1239.742188 760.902344 1241.304688 758.765625 1242.792969 756.570312 C 1244.28125 754.378906 1245.691406 752.136719 1247.023438 749.847656 C 1248.34375 747.609375 1249.597656 745.332031 1250.769531 743 C 1254.050781 736.492188 1256.6875 729.730469 1258.671875 722.714844 C 1260.65625 715.703125 1261.953125 708.5625 1262.566406 701.296875 C 1262.84375 698.0625 1263.0625 694.8125 1263.0625 691.507812 C 1263.078125 681.945312 1261.910156 672.527344 1259.5625 663.257812 C 1257.214844 653.988281 1253.757812 645.152344 1249.191406 636.746094 Z M 1209.210938 707.636719 C 1208.855469 708.894531 1208.464844 710.140625 1208.03125 711.378906 C 1207.597656 712.613281 1207.128906 713.832031 1206.617188 715.039062 C 1206.109375 716.242188 1205.5625 717.433594 1204.980469 718.605469 C 1204.394531 719.773438 1203.777344 720.925781 1203.121094 722.058594 C 1202.464844 723.191406 1201.773438 724.300781 1201.046875 725.390625 C 1200.324219 726.480469 1199.5625 727.546875 1198.769531 728.585938 C 1197.980469 729.628906 1197.15625 730.644531 1196.296875 731.632812 C 1195.441406 732.625 1194.554688 733.585938 1193.640625 734.519531 C 1192.722656 735.453125 1191.777344 736.359375 1190.804688 737.234375 C 1189.832031 738.109375 1188.832031 738.953125 1187.804688 739.761719 C 1186.777344 740.574219 1185.730469 741.355469 1184.652344 742.101562 C 1183.578125 742.847656 1182.480469 743.558594 1181.359375 744.234375 C 1180.242188 744.914062 1179.101562 745.554688 1177.941406 746.160156 C 1176.78125 746.765625 1175.605469 747.335938 1174.40625 747.867188 C 1173.210938 748.398438 1172 748.894531 1170.773438 749.347656 C 1169.546875 749.804688 1168.308594 750.222656 1167.054688 750.601562 C 1165.800781 750.976562 1164.539062 751.316406 1163.265625 751.613281 C 1161.992188 751.914062 1160.707031 752.171875 1159.417969 752.390625 C 1158.128906 752.609375 1156.832031 752.785156 1155.53125 752.921875 C 1154.230469 753.058594 1152.925781 753.15625 1151.617188 753.210938 C 1150.308594 753.265625 1149 753.28125 1147.695312 753.253906 C 1146.386719 753.226562 1145.078125 753.160156 1143.773438 753.050781 C 1142.472656 752.941406 1141.171875 752.792969 1139.875 752.601562 C 1138.582031 752.410156 1137.292969 752.179688 1136.015625 751.910156 C 1134.734375 751.636719 1133.464844 751.328125 1132.203125 750.976562 C 1130.941406 750.625 1129.695312 750.234375 1128.457031 749.804688 C 1127.222656 749.375 1126 748.910156 1124.792969 748.402344 C 1123.585938 747.898438 1122.394531 747.351562 1121.222656 746.773438 C 1120.050781 746.191406 1118.898438 745.574219 1117.761719 744.921875 C 1116.628906 744.269531 1115.515625 743.582031 1114.425781 742.859375 C 1113.335938 742.136719 1112.265625 741.378906 1111.222656 740.589844 C 1110.179688 739.800781 1109.164062 738.980469 1108.171875 738.125 C 1107.179688 737.269531 1106.214844 736.386719 1105.277344 735.472656 C 1104.339844 734.558594 1103.433594 733.617188 1102.558594 732.644531 C 1101.679688 731.675781 1100.835938 730.675781 1100.019531 729.652344 C 1099.203125 728.628906 1098.421875 727.582031 1097.675781 726.507812 C 1096.925781 725.433594 1096.210938 724.339844 1095.53125 723.21875 C 1094.851562 722.101562 1094.207031 720.964844 1093.597656 719.804688 C 1092.988281 718.648438 1092.417969 717.472656 1091.882812 716.277344 C 1091.347656 715.082031 1090.847656 713.871094 1090.390625 712.648438 C 1089.929688 711.421875 1089.511719 710.183594 1089.128906 708.929688 C 1088.75 707.679688 1088.40625 706.417969 1088.105469 705.144531 C 1087.804688 703.871094 1087.542969 702.589844 1087.320312 701.296875 C 1087.097656 700.007812 1086.917969 698.714844 1086.777344 697.414062 C 1086.636719 696.109375 1086.535156 694.808594 1086.476562 693.5 C 1086.417969 692.191406 1086.402344 690.882812 1086.425781 689.574219 C 1086.449219 688.265625 1086.515625 686.960938 1086.621094 685.65625 C 1086.726562 684.351562 1086.871094 683.050781 1087.058594 681.757812 C 1087.246094 680.460938 1087.472656 679.175781 1087.742188 677.894531 C 1088.007812 676.613281 1088.316406 675.339844 1088.664062 674.078125 C 1089.011719 672.816406 1089.398438 671.570312 1089.824219 670.332031 C 1090.25 669.09375 1090.714844 667.871094 1091.21875 666.664062 C 1091.722656 665.453125 1092.261719 664.261719 1092.839844 663.089844 C 1093.417969 661.914062 1094.03125 660.757812 1094.679688 659.625 C 1095.332031 658.488281 1096.015625 657.375 1096.734375 656.28125 C 1097.457031 655.1875 1098.210938 654.121094 1098.996094 653.074219 C 1099.78125 652.027344 1100.601562 651.007812 1101.453125 650.015625 C 1102.304688 649.019531 1103.1875 648.054688 1104.097656 647.113281 C 1105.007812 646.175781 1105.949219 645.265625 1106.917969 644.386719 C 1107.886719 643.507812 1108.882812 642.660156 1109.902344 641.839844 C 1110.925781 641.023438 1111.972656 640.238281 1113.042969 639.488281 C 1114.113281 638.734375 1115.210938 638.019531 1116.324219 637.335938 C 1117.441406 636.652344 1118.578125 636.003906 1119.734375 635.394531 C 1120.890625 634.78125 1122.066406 634.207031 1123.257812 633.667969 C 1124.453125 633.132812 1125.660156 632.632812 1126.886719 632.167969 C 1128.109375 631.707031 1129.347656 631.285156 1130.597656 630.898438 C 1131.847656 630.515625 1133.109375 630.167969 1134.382812 629.863281 C 1135.65625 629.558594 1136.9375 629.292969 1138.226562 629.070312 C 1139.515625 628.84375 1140.808594 628.660156 1142.109375 628.515625 C 1143.410156 628.371094 1144.714844 628.269531 1146.023438 628.207031 C 1147.328125 628.144531 1148.636719 628.125 1149.945312 628.144531 C 1151.253906 628.164062 1152.5625 628.226562 1153.867188 628.328125 C 1155.171875 628.429688 1156.472656 628.574219 1157.765625 628.757812 C 1159.0625 628.941406 1160.351562 629.164062 1161.632812 629.429688 C 1162.914062 629.695312 1164.1875 630 1165.449219 630.34375 C 1166.710938 630.6875 1167.960938 631.070312 1169.199219 631.496094 C 1170.4375 631.917969 1171.664062 632.378906 1172.871094 632.878906 C 1174.082031 633.378906 1175.273438 633.914062 1176.449219 634.488281 C 1177.625 635.066406 1178.78125 635.675781 1179.917969 636.324219 C 1181.058594 636.96875 1182.171875 637.652344 1183.265625 638.367188 C 1184.363281 639.085938 1185.433594 639.835938 1186.480469 640.621094 C 1187.527344 641.40625 1188.550781 642.222656 1189.546875 643.070312 C 1190.542969 643.917969 1191.511719 644.796875 1192.453125 645.707031 C 1193.394531 646.617188 1194.304688 647.554688 1195.1875 648.519531 C 1196.070312 649.488281 1196.921875 650.480469 1197.742188 651.5 C 1198.5625 652.519531 1199.347656 653.566406 1200.101562 654.632812 C 1200.855469 655.703125 1201.578125 656.796875 1202.261719 657.910156 C 1202.949219 659.023438 1203.597656 660.160156 1204.214844 661.316406 C 1204.828125 662.46875 1205.40625 663.644531 1205.949219 664.835938 C 1206.488281 666.027344 1206.992188 667.234375 1207.457031 668.457031 C 1207.921875 669.679688 1208.347656 670.917969 1208.738281 672.167969 C 1209.125 673.417969 1209.472656 674.675781 1209.78125 675.949219 C 1210.089844 677.21875 1210.359375 678.5 1210.585938 679.789062 C 1210.816406 681.078125 1211.003906 682.371094 1211.148438 683.671875 C 1211.296875 684.972656 1211.402344 686.277344 1211.46875 687.582031 C 1211.53125 688.890625 1211.558594 690.199219 1211.539062 691.507812 C 1211.460938 696.984375 1210.6875 702.359375 1209.210938 707.636719 Z M 1097.433594 602.5 C 1103.851562 598.03125 1110.707031 594.386719 1117.996094 591.5625 C 1120.304688 590.660156 1122.621094 589.847656 1124.941406 589.101562 C 1134.210938 586.304688 1143.613281 584.078125 1153.148438 582.417969 C 1155.527344 581.960938 1157.914062 581.496094 1160.308594 581.03125 C 1163.667969 580.363281 1167.042969 579.644531 1170.433594 578.867188 C 1171.871094 578.539062 1173.304688 578.226562 1174.75 577.867188 C 1182.265625 576.046875 1189.585938 573.632812 1196.710938 570.621094 C 1201.359375 568.640625 1205.851562 566.347656 1210.179688 563.746094 C 1212.03125 562.625 1213.695312 561.53125 1215.179688 560.484375 C 1219.097656 557.902344 1222.578125 554.828125 1225.617188 551.253906 C 1216.066406 544.15625 1205.753906 538.433594 1194.675781 534.085938 C 1193.761719 533.714844 1192.855469 533.324219 1191.929688 532.96875 C 1186.984375 531.074219 1181.949219 529.449219 1176.828125 528.089844 C 1175.847656 527.828125 1174.851562 527.605469 1173.863281 527.363281 C 1168.476562 526.019531 1163.03125 524.976562 1157.527344 524.242188 C 1151.863281 523.566406 1146.179688 523.203125 1140.476562 523.152344 C 1139.386719 523.140625 1138.304688 523.09375 1137.210938 523.105469 C 1132.734375 523.144531 1128.226562 523.324219 1123.6875 523.773438 C 1114.605469 524.683594 1105.679688 526.417969 1096.917969 528.96875 C 1088.152344 531.519531 1079.695312 534.847656 1071.542969 538.953125 L 1080.980469 525.261719 L 1085.617188 518.535156 C 1086.71875 516.9375 1087.714844 515.28125 1088.613281 513.566406 C 1089.511719 511.851562 1090.304688 510.085938 1090.988281 508.273438 C 1091.675781 506.464844 1092.246094 504.617188 1092.710938 502.734375 C 1093.171875 500.855469 1093.515625 498.953125 1093.746094 497.027344 C 1093.976562 495.105469 1094.089844 493.175781 1094.089844 491.238281 C 1094.085938 489.300781 1093.964844 487.371094 1093.726562 485.449219 C 1093.492188 483.527344 1093.140625 481.625 1092.671875 479.746094 C 1092.203125 477.867188 1091.625 476.019531 1090.933594 474.210938 L 1029.339844 312.683594 L 1067.304688 318.722656 C 1067.785156 318.800781 1068.269531 318.847656 1068.753906 318.875 C 1069.238281 318.898438 1069.726562 318.894531 1070.210938 318.867188 C 1070.695312 318.835938 1071.179688 318.78125 1071.65625 318.703125 C 1072.136719 318.621094 1072.609375 318.515625 1073.078125 318.382812 C 1073.546875 318.25 1074.003906 318.09375 1074.457031 317.914062 C 1074.90625 317.730469 1075.347656 317.527344 1075.773438 317.296875 C 1076.203125 317.070312 1076.621094 316.816406 1077.019531 316.542969 C 1077.421875 316.269531 1077.808594 315.972656 1078.175781 315.660156 C 1078.546875 315.34375 1078.898438 315.007812 1079.230469 314.65625 C 1079.566406 314.300781 1079.878906 313.929688 1080.171875 313.542969 C 1080.464844 313.15625 1080.738281 312.753906 1080.988281 312.335938 C 1081.238281 311.921875 1081.464844 311.492188 1081.667969 311.050781 C 1081.871094 310.609375 1082.050781 310.15625 1082.207031 309.695312 C 1082.359375 309.234375 1082.488281 308.769531 1082.59375 308.292969 C 1082.699219 307.820312 1082.777344 307.339844 1082.828125 306.855469 C 1082.882812 306.371094 1082.910156 305.886719 1082.910156 305.402344 L 1082.910156 234.492188 C 1082.910156 234.007812 1082.882812 233.523438 1082.828125 233.039062 C 1082.777344 232.554688 1082.699219 232.078125 1082.59375 231.601562 C 1082.488281 231.128906 1082.359375 230.660156 1082.207031 230.199219 C 1082.050781 229.738281 1081.871094 229.289062 1081.667969 228.847656 C 1081.464844 228.40625 1081.238281 227.976562 1080.988281 227.558594 C 1080.738281 227.140625 1080.464844 226.738281 1080.171875 226.351562 C 1079.878906 225.964844 1079.566406 225.59375 1079.230469 225.242188 C 1078.898438 224.886719 1078.546875 224.550781 1078.175781 224.238281 C 1077.808594 223.921875 1077.421875 223.625 1077.019531 223.351562 C 1076.617188 223.078125 1076.203125 222.828125 1075.773438 222.597656 C 1075.347656 222.371094 1074.90625 222.164062 1074.457031 221.984375 C 1074.003906 221.800781 1073.546875 221.644531 1073.078125 221.511719 C 1072.609375 221.378906 1072.136719 221.273438 1071.65625 221.195312 C 1071.175781 221.113281 1070.695312 221.058594 1070.210938 221.03125 C 1069.726562 221 1069.238281 221 1068.753906 221.023438 C 1068.269531 221.046875 1067.785156 221.097656 1067.304688 221.171875 L 980.25 235.023438 C 979.328125 235.167969 978.425781 235.394531 977.542969 235.703125 C 976.660156 236.007812 975.8125 236.390625 974.996094 236.847656 C 974.183594 237.304688 973.414062 237.828125 972.691406 238.421875 C 971.96875 239.015625 971.304688 239.667969 970.699219 240.378906 C 970.09375 241.089844 969.554688 241.847656 969.082031 242.652344 C 968.609375 243.457031 968.214844 244.300781 967.890625 245.175781 C 967.566406 246.050781 967.324219 246.949219 967.160156 247.871094 C 966.996094 248.789062 966.914062 249.714844 966.914062 250.652344 L 966.914062 263.726562 C 965.585938 263.445312 964.242188 263.273438 962.886719 263.203125 L 893.488281 262.316406 C 892.332031 262.273438 891.191406 262.109375 890.070312 261.824219 C 888.945312 261.539062 887.867188 261.136719 886.828125 260.621094 C 885.792969 260.105469 884.820312 259.488281 883.917969 258.761719 C 883.011719 258.039062 882.191406 257.230469 881.460938 256.332031 L 818.640625 178.945312 C 783.894531 136.347656 724.585938 149.613281 713.417969 203.4375 L 680.765625 326.1875 C 680.503906 327.433594 680.273438 328.6875 680.070312 329.945312 C 679.867188 331.203125 679.695312 332.464844 679.550781 333.730469 C 679.40625 334.996094 679.289062 336.265625 679.207031 337.535156 C 679.121094 338.808594 679.0625 340.082031 679.039062 341.355469 C 679.011719 342.628906 679.015625 343.902344 679.046875 345.175781 C 679.082031 346.449219 679.144531 347.722656 679.234375 348.992188 C 679.324219 350.265625 679.445312 351.53125 679.597656 352.796875 C 679.75 354.0625 679.929688 355.324219 680.136719 356.582031 C 680.347656 357.835938 680.585938 359.089844 680.851562 360.335938 C 681.117188 361.582031 681.414062 362.820312 681.738281 364.050781 C 682.0625 365.285156 682.414062 366.507812 682.796875 367.722656 C 683.179688 368.941406 683.585938 370.144531 684.023438 371.34375 C 684.460938 372.539062 684.925781 373.726562 685.417969 374.902344 C 685.910156 376.078125 686.429688 377.238281 686.976562 378.390625 C 687.523438 379.542969 688.09375 380.679688 688.695312 381.804688 C 689.292969 382.929688 689.917969 384.039062 690.566406 385.136719 C 691.21875 386.230469 691.894531 387.3125 692.59375 388.375 C 693.292969 389.441406 694.019531 390.488281 694.769531 391.519531 C 695.515625 392.546875 696.289062 393.5625 697.085938 394.554688 C 697.882812 395.550781 698.699219 396.527344 699.542969 397.484375 C 700.382812 398.441406 701.246094 399.378906 702.128906 400.296875 C 703.015625 401.210938 703.921875 402.109375 704.847656 402.984375 C 705.773438 403.859375 706.71875 404.710938 707.683594 405.542969 C 708.652344 406.375 709.636719 407.183594 710.636719 407.96875 C 711.640625 408.753906 712.664062 409.515625 713.699219 410.253906 C 714.738281 410.992188 715.792969 411.703125 716.867188 412.394531 C 717.9375 413.082031 719.023438 413.746094 720.128906 414.386719 C 721.230469 415.023438 722.347656 415.636719 723.476562 416.226562 C 724.609375 416.8125 725.753906 417.371094 726.910156 417.90625 C 728.066406 418.441406 729.234375 418.949219 730.414062 419.425781 C 731.597656 419.90625 732.785156 420.359375 733.988281 420.785156 C 735.191406 421.207031 736.398438 421.605469 737.621094 421.972656 L 535.925781 421.972656 C 535.433594 421.972656 534.949219 422.023438 534.46875 422.117188 C 533.988281 422.214844 533.519531 422.355469 533.066406 422.542969 C 532.617188 422.730469 532.183594 422.960938 531.777344 423.234375 C 531.371094 423.507812 530.992188 423.816406 530.648438 424.164062 C 530.300781 424.511719 529.992188 424.886719 529.71875 425.292969 C 529.449219 425.703125 529.21875 426.132812 529.03125 426.585938 C 528.84375 427.039062 528.703125 427.503906 528.605469 427.984375 C 528.511719 428.464844 528.460938 428.953125 528.460938 429.441406 L 528.460938 457.507812 C 528.464844 457.996094 528.511719 458.480469 528.605469 458.960938 C 528.703125 459.441406 528.84375 459.90625 529.03125 460.359375 C 529.21875 460.8125 529.449219 461.242188 529.722656 461.648438 C 529.996094 462.058594 530.304688 462.433594 530.648438 462.78125 C 530.996094 463.125 531.375 463.433594 531.78125 463.707031 C 532.1875 463.980469 532.617188 464.210938 533.070312 464.398438 C 533.523438 464.585938 533.988281 464.726562 534.46875 464.824219 C 534.949219 464.917969 535.433594 464.964844 535.925781 464.96875 L 815.507812 464.96875 C 815.996094 464.96875 816.484375 464.917969 816.964844 464.824219 C 817.445312 464.726562 817.910156 464.585938 818.363281 464.398438 C 818.816406 464.210938 819.246094 463.980469 819.652344 463.710938 C 820.0625 463.4375 820.4375 463.128906 820.785156 462.78125 C 821.132812 462.4375 821.441406 462.058594 821.714844 461.652344 C 821.988281 461.246094 822.21875 460.816406 822.40625 460.363281 C 822.59375 459.910156 822.734375 459.441406 822.832031 458.960938 C 822.925781 458.480469 822.976562 457.996094 822.976562 457.507812 L 822.976562 435.289062 L 861.09375 440.773438 L 830.925781 574.96875 C 830.75 575.964844 830.621094 576.964844 830.542969 577.96875 C 830.464844 578.976562 830.4375 579.984375 830.457031 580.992188 C 830.476562 582.003906 830.542969 583.007812 830.660156 584.011719 C 830.777344 585.011719 830.945312 586.007812 831.15625 586.992188 C 831.371094 587.980469 831.632812 588.953125 831.941406 589.914062 C 832.25 590.875 832.605469 591.820312 833.007812 592.746094 C 833.40625 593.671875 833.851562 594.578125 834.339844 595.460938 C 834.828125 596.34375 835.359375 597.199219 835.929688 598.03125 C 836.503906 598.863281 837.113281 599.664062 837.761719 600.4375 C 838.414062 601.210938 839.097656 601.949219 839.820312 602.652344 C 840.542969 603.359375 841.296875 604.027344 842.082031 604.660156 C 842.871094 605.292969 843.683594 605.882812 844.53125 606.4375 C 845.375 606.992188 846.242188 607.5 847.136719 607.96875 C 848.03125 608.4375 848.945312 608.859375 849.882812 609.242188 C 850.816406 609.621094 851.769531 609.953125 852.734375 610.238281 C 853.703125 610.527344 854.683594 610.765625 855.671875 610.957031 C 856.664062 611.148438 857.664062 611.292969 858.667969 611.386719 C 859.671875 611.480469 860.679688 611.527344 861.6875 611.523438 C 862.699219 611.519531 863.703125 611.46875 864.707031 611.367188 C 865.710938 611.265625 866.710938 611.117188 867.699219 610.917969 C 868.6875 610.71875 869.667969 610.472656 870.632812 610.179688 C 871.597656 609.886719 872.546875 609.546875 873.480469 609.160156 C 874.410156 608.777344 875.324219 608.347656 876.214844 607.871094 C 877.105469 607.398438 877.972656 606.882812 878.8125 606.324219 C 879.652344 605.765625 880.464844 605.167969 881.246094 604.527344 C 882.027344 603.890625 882.777344 603.21875 883.496094 602.507812 C 884.210938 601.796875 884.894531 601.054688 885.539062 600.277344 C 886.183594 599.5 886.789062 598.695312 887.355469 597.859375 C 887.921875 597.023438 888.445312 596.164062 888.929688 595.277344 C 889.410156 594.390625 889.847656 593.484375 890.242188 592.554688 C 890.636719 591.625 890.984375 590.679688 891.289062 589.714844 C 891.589844 588.753906 891.847656 587.777344 892.054688 586.789062 L 929.328125 438.695312 C 929.707031 436.917969 930 435.125 930.199219 433.320312 C 930.402344 431.515625 930.515625 429.703125 930.535156 427.886719 C 930.558594 426.070312 930.492188 424.253906 930.332031 422.445312 C 930.175781 420.632812 929.929688 418.835938 929.59375 417.050781 C 929.257812 415.265625 928.835938 413.5 928.328125 411.753906 C 927.816406 410.011719 927.222656 408.296875 926.542969 406.609375 C 925.863281 404.925781 925.101562 403.277344 924.257812 401.667969 C 923.414062 400.058594 922.496094 398.492188 921.496094 396.976562 C 920.5 395.457031 919.429688 393.992188 918.285156 392.578125 C 917.144531 391.164062 915.933594 389.8125 914.65625 388.519531 C 913.382812 387.226562 912.042969 386 910.644531 384.835938 C 909.246094 383.675781 907.796875 382.589844 906.289062 381.570312 C 904.785156 380.554688 903.230469 379.613281 901.632812 378.75 C 900.035156 377.886719 898.394531 377.105469 896.71875 376.402344 C 895.042969 375.703125 893.335938 375.085938 891.597656 374.554688 C 889.859375 374.019531 888.101562 373.574219 886.320312 373.21875 C 854.933594 366.910156 815.9375 359.304688 795.652344 355.367188 C 794.757812 355.191406 793.890625 354.929688 793.046875 354.582031 C 792.207031 354.234375 791.410156 353.804688 790.65625 353.292969 C 789.898438 352.785156 789.203125 352.207031 788.566406 351.554688 C 787.925781 350.90625 787.359375 350.199219 786.863281 349.4375 C 786.367188 348.671875 785.953125 347.867188 785.617188 347.019531 C 785.285156 346.171875 785.039062 345.300781 784.878906 344.402344 C 784.722656 343.507812 784.652344 342.605469 784.675781 341.695312 C 784.699219 340.785156 784.8125 339.882812 785.019531 338.996094 L 803.953125 254.824219 L 839.417969 296.832031 C 840.894531 298.652344 842.472656 300.378906 844.152344 302.015625 C 845.832031 303.652344 847.597656 305.1875 849.453125 306.617188 C 851.308594 308.050781 853.242188 309.371094 855.25 310.582031 C 857.257812 311.789062 859.332031 312.878906 861.464844 313.847656 C 863.597656 314.816406 865.78125 315.660156 868.015625 316.375 C 870.246094 317.09375 872.511719 317.675781 874.8125 318.132812 C 877.113281 318.585938 879.429688 318.90625 881.765625 319.09375 C 884.105469 319.28125 886.441406 319.332031 888.785156 319.246094 L 962.878906 315.191406 C 966.710938 315.054688 970.328125 314.109375 973.738281 312.359375 L 1000.304688 460.199219 C 1001.238281 465.394531 1001.757812 470.632812 1001.867188 475.910156 C 1001.980469 481.1875 1001.675781 486.441406 1000.960938 491.671875 C 1000.246094 496.902344 999.125 502.042969 997.601562 507.097656 C 996.078125 512.152344 994.167969 517.054688 991.875 521.808594 L 954.753906 598.707031 C 953.738281 600.8125 952.578125 602.839844 951.277344 604.78125 C 949.976562 606.726562 948.546875 608.570312 946.984375 610.316406 C 945.425781 612.058594 943.75 613.6875 941.960938 615.195312 C 940.171875 616.703125 938.289062 618.078125 936.304688 619.324219 C 934.324219 620.566406 932.265625 621.667969 930.128906 622.621094 C 927.992188 623.578125 925.800781 624.378906 923.550781 625.023438 C 921.304688 625.671875 919.019531 626.160156 916.703125 626.488281 C 914.386719 626.8125 912.058594 626.976562 909.71875 626.976562 L 839.355469 626.976562 C 838.46875 626.976562 837.582031 626.953125 836.695312 626.902344 C 835.8125 626.855469 834.929688 626.78125 834.046875 626.683594 C 833.164062 626.585938 832.289062 626.464844 831.414062 626.316406 C 830.539062 626.171875 829.667969 626 828.804688 625.808594 C 827.9375 625.613281 827.082031 625.394531 826.226562 625.152344 C 825.375 624.914062 824.527344 624.648438 823.691406 624.359375 C 822.851562 624.070312 822.023438 623.757812 821.199219 623.425781 C 820.378906 623.089844 819.566406 622.734375 818.765625 622.355469 C 817.964844 621.976562 817.175781 621.578125 816.394531 621.15625 C 815.617188 620.730469 814.847656 620.289062 814.09375 619.824219 C 813.339844 619.359375 812.597656 618.875 811.871094 618.367188 C 811.140625 617.863281 810.425781 617.335938 809.726562 616.789062 C 809.027344 616.246094 808.347656 615.683594 807.679688 615.097656 C 807.011719 614.515625 806.359375 613.914062 805.722656 613.296875 C 805.089844 612.675781 804.472656 612.042969 803.871094 611.386719 C 803.273438 610.734375 802.691406 610.066406 802.128906 609.382812 C 801.566406 608.695312 801.023438 607.996094 800.496094 607.28125 C 799.972656 606.566406 799.46875 605.835938 798.984375 605.09375 C 798.503906 604.351562 798.039062 603.597656 797.597656 602.828125 C 797.15625 602.058594 796.734375 601.277344 796.335938 600.488281 C 795.9375 599.695312 795.558594 598.894531 795.203125 598.082031 C 794.847656 597.269531 794.515625 596.449219 794.207031 595.617188 C 793.898438 594.785156 793.613281 593.945312 793.347656 593.101562 C 793.085938 592.253906 792.847656 591.402344 792.628906 590.539062 C 792.414062 589.679688 792.222656 588.816406 792.054688 587.945312 C 791.886719 587.074219 791.742188 586.199219 791.621094 585.324219 C 791.5 584.445312 791.40625 583.5625 791.335938 582.679688 C 791.261719 581.796875 791.214844 580.910156 791.191406 580.023438 C 791.171875 579.136719 791.171875 578.25 791.199219 577.367188 C 791.226562 576.480469 791.277344 575.59375 791.351562 574.710938 C 791.425781 573.828125 791.527344 572.949219 791.648438 572.070312 C 791.773438 571.191406 791.921875 570.316406 792.09375 569.449219 L 810.621094 475.832031 L 544.199219 475.832031 C 542.367188 475.828125 540.570312 476.074219 538.804688 476.570312 C 537.042969 477.070312 535.378906 477.800781 533.820312 478.765625 C 531.324219 480.324219 527.964844 482.492188 523.953125 485.246094 C 521.734375 486.78125 519.277344 487.558594 516.578125 487.574219 L 402.691406 487.574219 C 401.789062 487.574219 400.894531 487.660156 400.007812 487.835938 C 399.125 488.015625 398.265625 488.273438 397.429688 488.621094 C 396.597656 488.964844 395.804688 489.390625 395.054688 489.890625 C 394.304688 490.390625 393.609375 490.960938 392.972656 491.601562 C 392.332031 492.238281 391.761719 492.933594 391.261719 493.683594 C 390.761719 494.433594 390.335938 495.226562 389.992188 496.058594 C 389.644531 496.894531 389.386719 497.753906 389.210938 498.636719 C 389.03125 499.523438 388.945312 500.417969 388.945312 501.320312 C 388.945312 502.222656 389.03125 503.117188 389.210938 504 C 389.386719 504.886719 389.644531 505.746094 389.992188 506.582031 C 390.335938 507.414062 390.761719 508.207031 391.261719 508.957031 C 391.761719 509.707031 392.332031 510.402344 392.972656 511.039062 C 393.609375 511.679688 394.304688 512.246094 395.054688 512.75 C 395.804688 513.25 396.597656 513.675781 397.429688 514.019531 C 398.265625 514.363281 399.125 514.625 400.007812 514.800781 C 400.894531 514.976562 401.789062 515.066406 402.691406 515.066406 L 532.765625 515.066406 C 533.667969 515.066406 534.5625 515.152344 535.449219 515.332031 C 536.332031 515.507812 537.191406 515.765625 538.027344 516.113281 C 538.859375 516.457031 539.652344 516.882812 540.402344 517.382812 C 541.152344 517.882812 541.847656 518.453125 542.484375 519.09375 C 543.125 519.730469 543.695312 520.425781 544.195312 521.175781 C 544.695312 521.925781 545.121094 522.71875 545.464844 523.550781 C 545.8125 524.386719 546.070312 525.246094 546.25 526.128906 C 546.425781 527.015625 546.511719 527.910156 546.511719 528.8125 C 546.511719 529.714844 546.425781 530.609375 546.25 531.492188 C 546.070312 532.378906 545.8125 533.238281 545.464844 534.074219 C 545.121094 534.90625 544.695312 535.699219 544.195312 536.449219 C 543.695312 537.199219 543.125 537.894531 542.484375 538.53125 C 541.847656 539.171875 541.152344 539.742188 540.402344 540.242188 C 539.652344 540.742188 538.859375 541.167969 538.027344 541.511719 C 537.191406 541.859375 536.332031 542.117188 535.449219 542.292969 C 534.5625 542.46875 533.667969 542.558594 532.765625 542.558594 L 204.882812 542.558594 C 203.980469 542.558594 203.085938 542.648438 202.199219 542.824219 C 201.316406 543 200.453125 543.257812 199.621094 543.605469 C 198.789062 543.949219 197.996094 544.375 197.246094 544.875 C 196.492188 545.375 195.800781 545.945312 195.160156 546.585938 C 194.523438 547.222656 193.953125 547.917969 193.453125 548.667969 C 192.949219 549.417969 192.527344 550.210938 192.179688 551.042969 C 191.835938 551.878906 191.574219 552.738281 191.398438 553.625 C 191.222656 554.507812 191.136719 555.402344 191.136719 556.304688 C 191.136719 557.207031 191.222656 558.101562 191.398438 558.988281 C 191.574219 559.871094 191.835938 560.730469 192.179688 561.566406 C 192.527344 562.398438 192.949219 563.191406 193.453125 563.941406 C 193.953125 564.691406 194.523438 565.386719 195.160156 566.023438 C 195.800781 566.664062 196.492188 567.234375 197.246094 567.734375 C 197.996094 568.234375 198.789062 568.660156 199.621094 569.003906 C 200.453125 569.351562 201.316406 569.609375 202.199219 569.785156 C 203.085938 569.964844 203.980469 570.050781 204.882812 570.050781 L 467.457031 570.050781 C 468.367188 570.042969 469.265625 570.121094 470.160156 570.292969 C 471.050781 570.460938 471.917969 570.714844 472.761719 571.058594 C 473.601562 571.398438 474.402344 571.820312 475.160156 572.320312 C 475.917969 572.820312 476.621094 573.390625 477.265625 574.027344 C 477.910156 574.667969 478.488281 575.363281 478.996094 576.117188 C 479.503906 576.871094 479.933594 577.667969 480.28125 578.503906 C 480.632812 579.34375 480.894531 580.207031 481.074219 581.097656 C 481.253906 581.988281 481.339844 582.886719 481.339844 583.796875 C 481.339844 584.707031 481.253906 585.605469 481.074219 586.496094 C 480.894531 587.386719 480.632812 588.25 480.28125 589.089844 C 479.933594 589.925781 479.503906 590.722656 478.996094 591.476562 C 478.488281 592.230469 477.910156 592.925781 477.265625 593.566406 C 476.621094 594.203125 475.917969 594.773438 475.160156 595.273438 C 474.402344 595.773438 473.601562 596.195312 472.761719 596.535156 C 471.917969 596.875 471.050781 597.132812 470.160156 597.300781 C 469.265625 597.472656 468.367188 597.550781 467.457031 597.542969 L 299.082031 597.542969 C 298.179688 597.542969 297.285156 597.628906 296.398438 597.804688 C 295.515625 597.984375 294.65625 598.242188 293.820312 598.589844 C 292.988281 598.933594 292.195312 599.359375 291.445312 599.859375 C 290.695312 600.359375 290 600.929688 289.359375 601.570312 C 288.722656 602.207031 288.152344 602.902344 287.652344 603.652344 C 287.148438 604.402344 286.726562 605.195312 286.382812 606.027344 C 286.035156 606.863281 285.773438 607.722656 285.597656 608.605469 C 285.421875 609.492188 285.335938 610.386719 285.335938 611.289062 C 285.335938 612.191406 285.421875 613.085938 285.597656 613.96875 C 285.773438 614.855469 286.035156 615.714844 286.382812 616.550781 C 286.726562 617.382812 287.148438 618.175781 287.652344 618.925781 C 288.152344 619.675781 288.722656 620.371094 289.359375 621.007812 C 290 621.648438 290.695312 622.214844 291.445312 622.71875 C 292.195312 623.21875 292.988281 623.644531 293.820312 623.988281 C 294.65625 624.332031 295.515625 624.59375 296.398438 624.769531 C 297.285156 624.945312 298.179688 625.035156 299.082031 625.035156 L 412.742188 625.035156 C 408.628906 636.855469 405.53125 648.9375 403.445312 661.277344 C 401.359375 673.621094 400.320312 686.046875 400.324219 698.5625 L 445.058594 698.5625 C 445.058594 698.832031 445.003906 699.089844 445.003906 699.363281 C 445.003906 702.445312 445.207031 705.472656 445.460938 708.484375 C 445.976562 714.722656 447.035156 720.867188 448.636719 726.917969 C 450.234375 732.96875 452.351562 738.832031 454.988281 744.511719 C 457.621094 750.1875 460.734375 755.589844 464.320312 760.71875 C 467.910156 765.847656 471.917969 770.621094 476.347656 775.042969 C 477.78125 776.492188 479.25 777.894531 480.761719 779.261719 C 482.277344 780.625 483.824219 781.941406 485.414062 783.21875 C 487 784.492188 488.625 785.71875 490.28125 786.902344 C 491.9375 788.085938 493.628906 789.21875 495.351562 790.300781 C 497.074219 791.386719 498.828125 792.421875 500.609375 793.40625 C 502.394531 794.390625 504.203125 795.320312 506.039062 796.203125 C 507.875 797.082031 509.734375 797.910156 511.617188 798.683594 C 513.5 799.457031 515.40625 800.175781 517.328125 800.839844 C 519.253906 801.503906 521.195312 802.113281 523.15625 802.667969 C 525.113281 803.21875 527.089844 803.714844 529.078125 804.15625 C 531.066406 804.59375 533.0625 804.976562 535.074219 805.300781 C 537.082031 805.628906 539.101562 805.894531 541.125 806.105469 C 543.152344 806.3125 545.179688 806.464844 547.214844 806.558594 C 549.25 806.648438 551.285156 806.683594 553.320312 806.660156 C 555.355469 806.636719 557.390625 806.554688 559.421875 806.414062 C 561.453125 806.273438 563.476562 806.074219 565.496094 805.816406 C 567.515625 805.5625 569.527344 805.246094 571.53125 804.875 C 573.53125 804.503906 575.519531 804.074219 577.5 803.585938 C 579.476562 803.101562 581.4375 802.558594 583.382812 801.960938 C 585.328125 801.359375 587.257812 800.707031 589.164062 799.996094 C 591.074219 799.289062 592.960938 798.523438 594.824219 797.707031 C 596.6875 796.886719 598.527344 796.019531 600.34375 795.09375 C 602.160156 794.171875 603.945312 793.199219 605.703125 792.171875 C 607.460938 791.144531 609.191406 790.070312 610.886719 788.945312 C 612.585938 787.820312 614.25 786.648438 615.878906 785.429688 C 617.507812 784.207031 619.101562 782.941406 620.660156 781.628906 C 622.214844 780.320312 623.734375 778.964844 625.214844 777.5625 C 626.695312 776.164062 628.132812 774.726562 629.527344 773.246094 C 630.925781 771.761719 632.277344 770.242188 633.589844 768.683594 C 634.898438 767.125 636.160156 765.53125 637.378906 763.898438 C 638.597656 762.265625 639.769531 760.601562 640.890625 758.902344 C 642.011719 757.203125 643.085938 755.476562 644.109375 753.714844 C 645.34375 751.628906 646.511719 749.507812 647.601562 747.335938 C 650.660156 741.273438 653.113281 734.972656 654.960938 728.4375 C 656.808594 721.902344 658.019531 715.253906 658.59375 708.484375 C 658.847656 705.472656 659.054688 702.445312 659.054688 699.363281 C 659.054688 699.097656 659.003906 698.835938 659.003906 698.5625 L 920.210938 698.5625 C 923.378906 698.527344 926.53125 698.304688 929.675781 697.894531 C 932.816406 697.484375 935.921875 696.894531 938.992188 696.117188 C 942.0625 695.339844 945.078125 694.386719 948.035156 693.253906 C 950.996094 692.121094 953.875 690.816406 956.679688 689.34375 C 959.484375 687.871094 962.191406 686.238281 964.804688 684.445312 C 967.414062 682.652344 969.910156 680.710938 972.292969 678.625 C 974.675781 676.535156 976.925781 674.316406 979.046875 671.960938 C 981.164062 669.605469 983.140625 667.136719 984.96875 664.550781 L 989.433594 658.066406 C 988.46875 667.875 988.464844 677.6875 989.425781 687.5 C 989.847656 691.785156 990.554688 695.972656 991.324219 700.132812 C 993.683594 712.867188 997.628906 725.09375 1003.152344 736.804688 C 1005 736.003906 1006.773438 735.0625 1008.476562 733.984375 C 1011.164062 732.316406 1013.714844 730.453125 1016.121094 728.394531 C 1019.378906 725.613281 1022.34375 722.550781 1025.019531 719.203125 C 1026.589844 717.242188 1028.046875 715.203125 1029.398438 713.085938 C 1031.167969 710.300781 1032.730469 707.515625 1034.210938 704.726562 C 1049.679688 675.578125 1051.375 645.953125 1083.953125 613.777344 C 1088.125 609.636719 1092.621094 605.875 1097.433594 602.5 Z M 611.058594 699.363281 C 611.03125 701.28125 610.910156 703.191406 610.699219 705.09375 C 610.484375 707 610.179688 708.886719 609.78125 710.761719 C 609.386719 712.636719 608.898438 714.488281 608.320312 716.3125 C 607.742188 718.140625 607.078125 719.933594 606.324219 721.695312 C 605.574219 723.460938 604.738281 725.179688 603.816406 726.863281 C 602.898438 728.542969 601.898438 730.175781 600.820312 731.757812 C 599.742188 733.339844 598.589844 734.867188 597.363281 736.339844 C 596.132812 737.8125 594.839844 739.21875 593.472656 740.566406 C 592.109375 741.910156 590.683594 743.183594 589.195312 744.390625 C 587.707031 745.597656 586.164062 746.730469 584.5625 747.785156 C 582.964844 748.839844 581.320312 749.816406 579.625 750.710938 C 577.929688 751.609375 576.199219 752.417969 574.425781 753.144531 C 572.652344 753.871094 570.847656 754.511719 569.015625 755.0625 C 567.179688 755.613281 565.320312 756.074219 563.441406 756.445312 C 561.5625 756.816406 559.667969 757.09375 557.761719 757.28125 C 555.855469 757.464844 553.941406 757.558594 552.027344 757.558594 C 550.109375 757.558594 548.199219 757.464844 546.292969 757.28125 C 544.386719 757.09375 542.492188 756.816406 540.613281 756.445312 C 538.734375 756.074219 536.875 755.613281 535.039062 755.0625 C 533.207031 754.511719 531.402344 753.871094 529.628906 753.144531 C 527.855469 752.417969 526.125 751.609375 524.429688 750.710938 C 522.734375 749.816406 521.089844 748.839844 519.492188 747.785156 C 517.890625 746.730469 516.347656 745.597656 514.859375 744.390625 C 513.371094 743.183594 511.945312 741.910156 510.582031 740.566406 C 509.214844 739.21875 507.917969 737.8125 506.691406 736.339844 C 505.464844 734.867188 504.3125 733.339844 503.234375 731.757812 C 502.15625 730.175781 501.15625 728.542969 500.234375 726.863281 C 499.316406 725.179688 498.480469 723.460938 497.726562 721.695312 C 496.976562 719.933594 496.3125 718.140625 495.734375 716.3125 C 495.15625 714.488281 494.667969 712.636719 494.273438 710.761719 C 493.875 708.886719 493.570312 707 493.355469 705.09375 C 493.144531 703.191406 493.023438 701.28125 492.996094 699.363281 C 492.996094 699.097656 493.074219 698.839844 493.074219 698.5625 L 610.980469 698.5625 C 610.980469 698.839844 611.058594 699.09375 611.058594 699.363281 Z M 751.082031 115.542969 C 749.613281 104.503906 746.679688 81.3125 746.96875 75.253906 C 748.929688 32.964844 778.460938 -0.015625 827.09375 2.242188 C 829.121094 2.335938 831.144531 2.511719 833.160156 2.765625 C 835.175781 3.023438 837.175781 3.355469 839.164062 3.769531 C 841.152344 4.1875 843.121094 4.679688 845.074219 5.25 C 847.023438 5.820312 848.945312 6.46875 850.84375 7.191406 C 852.742188 7.914062 854.609375 8.710938 856.445312 9.585938 C 858.277344 10.457031 860.074219 11.398438 861.835938 12.414062 C 863.59375 13.429688 865.3125 14.511719 866.984375 15.664062 C 868.660156 16.816406 870.285156 18.03125 871.863281 19.3125 C 873.4375 20.589844 874.960938 21.933594 876.433594 23.335938 C 877.902344 24.734375 879.316406 26.195312 880.671875 27.707031 C 882.027344 29.222656 883.316406 30.785156 884.546875 32.402344 C 885.777344 34.019531 886.941406 35.683594 888.039062 37.390625 C 889.140625 39.101562 890.167969 40.851562 891.125 42.640625 C 892.085938 44.433594 892.972656 46.257812 893.785156 48.121094 C 894.597656 49.980469 895.339844 51.871094 896 53.792969 C 896.664062 55.710938 897.25 57.65625 897.761719 59.621094 L 823.296875 56.160156 C 822.789062 56.136719 822.285156 56.164062 821.785156 56.238281 C 821.285156 56.316406 820.792969 56.4375 820.316406 56.609375 C 819.839844 56.785156 819.386719 57 818.949219 57.261719 C 818.515625 57.523438 818.113281 57.824219 817.738281 58.167969 C 817.363281 58.507812 817.023438 58.882812 816.722656 59.292969 C 816.421875 59.699219 816.164062 60.132812 815.949219 60.59375 C 815.734375 61.050781 815.566406 61.527344 815.445312 62.019531 C 815.320312 62.511719 815.25 63.011719 815.226562 63.515625 L 814.054688 88.722656 C 814.027344 89.304688 814.046875 89.882812 814.113281 90.460938 C 814.183594 91.039062 814.296875 91.609375 814.457031 92.171875 C 814.617188 92.730469 814.824219 93.273438 815.070312 93.800781 C 815.320312 94.328125 815.609375 94.828125 815.941406 95.308594 C 816.273438 95.789062 816.640625 96.238281 817.046875 96.65625 C 817.449219 97.074219 817.886719 97.460938 818.355469 97.808594 C 818.820312 98.15625 819.3125 98.464844 819.832031 98.730469 C 820.347656 99 820.882812 99.222656 821.4375 99.402344 L 894.664062 123.230469 C 890.058594 136.867188 883.402344 149.417969 874.695312 160.878906 C 874.367188 161.304688 874.007812 161.703125 873.617188 162.074219 C 873.226562 162.445312 872.808594 162.78125 872.367188 163.085938 C 871.921875 163.390625 871.453125 163.65625 870.964844 163.882812 C 870.476562 164.109375 869.976562 164.296875 869.457031 164.445312 C 868.9375 164.589844 868.414062 164.695312 867.878906 164.757812 C 867.34375 164.820312 866.808594 164.839844 866.269531 164.8125 C 865.730469 164.789062 865.199219 164.722656 864.671875 164.613281 C 864.144531 164.5 863.628906 164.351562 863.128906 164.15625 L 757.421875 123.574219 C 756.582031 123.253906 755.796875 122.824219 755.074219 122.292969 C 754.347656 121.757812 753.703125 121.136719 753.148438 120.429688 C 752.589844 119.722656 752.132812 118.957031 751.78125 118.125 C 751.433594 117.296875 751.199219 116.433594 751.078125 115.542969 Z M 325.636719 275.050781 L 190.789062 275.050781 C 190.308594 275.050781 189.828125 275.027344 189.351562 274.976562 C 188.875 274.925781 188.402344 274.851562 187.929688 274.75 C 187.460938 274.652344 187 274.527344 186.542969 274.378906 C 186.085938 274.230469 185.636719 274.058594 185.199219 273.863281 C 184.761719 273.667969 184.335938 273.453125 183.917969 273.210938 C 183.503906 272.972656 183.101562 272.710938 182.710938 272.429688 C 182.324219 272.148438 181.949219 271.847656 181.59375 271.523438 C 181.238281 271.203125 180.898438 270.867188 180.578125 270.507812 C 180.253906 270.152344 179.953125 269.78125 179.671875 269.390625 C 179.390625 269.003906 179.128906 268.601562 178.886719 268.1875 C 178.648438 267.773438 178.429688 267.34375 178.234375 266.90625 C 178.039062 266.46875 177.863281 266.023438 177.714844 265.566406 C 177.566406 265.109375 177.441406 264.644531 177.34375 264.175781 C 177.242188 263.707031 177.167969 263.234375 177.117188 262.757812 C 177.066406 262.28125 177.039062 261.800781 177.039062 261.320312 C 177.039062 260.839844 177.0625 260.363281 177.113281 259.886719 C 177.828125 252.730469 184.378906 247.558594 191.570312 247.558594 L 360.882812 247.558594 C 361.363281 247.558594 361.84375 247.535156 362.320312 247.484375 C 362.796875 247.433594 363.269531 247.359375 363.738281 247.257812 C 364.210938 247.160156 364.671875 247.035156 365.128906 246.886719 C 365.585938 246.738281 366.03125 246.566406 366.472656 246.371094 C 366.910156 246.175781 367.335938 245.960938 367.753906 245.71875 C 368.167969 245.480469 368.570312 245.21875 368.957031 244.9375 C 369.347656 244.65625 369.71875 244.355469 370.074219 244.03125 C 370.433594 243.710938 370.773438 243.375 371.09375 243.015625 C 371.414062 242.660156 371.714844 242.289062 372 241.902344 C 372.28125 241.511719 372.542969 241.109375 372.78125 240.695312 C 373.023438 240.28125 373.242188 239.851562 373.4375 239.414062 C 373.632812 238.976562 373.804688 238.53125 373.953125 238.074219 C 374.101562 237.617188 374.226562 237.15625 374.328125 236.683594 C 374.429688 236.214844 374.503906 235.742188 374.554688 235.265625 C 374.605469 234.789062 374.632812 234.308594 374.632812 233.828125 C 374.632812 233.351562 374.609375 232.871094 374.558594 232.394531 C 373.84375 225.238281 367.289062 220.066406 360.101562 220.066406 L 224.453125 220.066406 C 223.546875 220.066406 222.65625 219.980469 221.769531 219.804688 C 220.882812 219.625 220.023438 219.367188 219.191406 219.019531 C 218.355469 218.675781 217.566406 218.25 216.8125 217.75 C 216.0625 217.25 215.371094 216.679688 214.730469 216.039062 C 214.09375 215.402344 213.523438 214.707031 213.023438 213.957031 C 212.519531 213.207031 212.097656 212.414062 211.75 211.582031 C 211.40625 210.746094 211.144531 209.886719 210.96875 209.003906 C 210.792969 208.117188 210.707031 207.222656 210.707031 206.320312 C 210.707031 205.417969 210.792969 204.523438 210.96875 203.640625 C 211.144531 202.753906 211.40625 201.894531 211.75 201.058594 C 212.097656 200.226562 212.519531 199.433594 213.023438 198.683594 C 213.523438 197.933594 214.09375 197.238281 214.730469 196.601562 C 215.371094 195.960938 216.0625 195.390625 216.8125 194.890625 C 217.566406 194.390625 218.355469 193.964844 219.191406 193.621094 C 220.023438 193.273438 220.882812 193.015625 221.769531 192.839844 C 222.65625 192.664062 223.546875 192.574219 224.453125 192.574219 L 360.882812 192.574219 C 361.363281 192.574219 361.84375 192.550781 362.320312 192.5 C 362.796875 192.449219 363.269531 192.375 363.738281 192.273438 C 364.210938 192.175781 364.671875 192.050781 365.128906 191.902344 C 365.585938 191.753906 366.03125 191.582031 366.472656 191.386719 C 366.910156 191.191406 367.335938 190.976562 367.753906 190.734375 C 368.167969 190.496094 368.570312 190.234375 368.957031 189.953125 C 369.347656 189.671875 369.71875 189.371094 370.074219 189.046875 C 370.433594 188.726562 370.773438 188.390625 371.09375 188.03125 C 371.414062 187.675781 371.714844 187.304688 372 186.917969 C 372.28125 186.527344 372.542969 186.125 372.78125 185.710938 C 373.023438 185.296875 373.242188 184.871094 373.4375 184.429688 C 373.632812 183.992188 373.804688 183.546875 373.953125 183.089844 C 374.101562 182.632812 374.226562 182.171875 374.328125 181.703125 C 374.429688 181.230469 374.503906 180.757812 374.554688 180.28125 C 374.605469 179.804688 374.632812 179.324219 374.632812 178.847656 C 374.632812 178.367188 374.609375 177.886719 374.558594 177.410156 C 373.84375 170.253906 367.289062 165.082031 360.101562 165.082031 L 265.316406 165.082031 C 264.835938 165.082031 264.355469 165.058594 263.878906 165.007812 C 263.402344 164.957031 262.929688 164.882812 262.460938 164.78125 C 261.988281 164.683594 261.527344 164.558594 261.070312 164.410156 C 260.613281 164.261719 260.167969 164.089844 259.726562 163.894531 C 259.289062 163.699219 258.863281 163.480469 258.445312 163.242188 C 258.03125 163.003906 257.628906 162.742188 257.242188 162.460938 C 256.851562 162.179688 256.480469 161.875 256.121094 161.554688 C 255.765625 161.234375 255.425781 160.894531 255.105469 160.539062 C 254.785156 160.183594 254.480469 159.8125 254.199219 159.421875 C 253.917969 159.035156 253.65625 158.632812 253.414062 158.21875 C 253.175781 157.804688 252.957031 157.375 252.761719 156.9375 C 252.566406 156.5 252.394531 156.050781 252.246094 155.597656 C 252.097656 155.140625 251.972656 154.675781 251.871094 154.207031 C 251.769531 153.738281 251.695312 153.265625 251.644531 152.789062 C 251.59375 152.3125 251.566406 151.832031 251.566406 151.351562 C 251.566406 150.871094 251.589844 150.394531 251.640625 149.917969 C 252.355469 142.761719 258.910156 137.589844 266.097656 137.589844 L 325.636719 137.589844 L 325.636719 121.796875 C 325.636719 120.90625 325.722656 120.019531 325.898438 119.140625 C 326.074219 118.265625 326.332031 117.414062 326.675781 116.585938 C 327.015625 115.761719 327.433594 114.976562 327.933594 114.234375 C 328.429688 113.488281 328.992188 112.800781 329.625 112.171875 C 330.257812 111.539062 330.945312 110.972656 331.6875 110.476562 C 332.433594 109.980469 333.21875 109.558594 334.042969 109.21875 C 334.871094 108.875 335.722656 108.617188 336.597656 108.445312 C 337.476562 108.269531 338.359375 108.183594 339.253906 108.183594 L 643.421875 108.183594 C 644.316406 108.183594 645.203125 108.269531 646.078125 108.445312 C 646.957031 108.617188 647.808594 108.875 648.632812 109.21875 C 649.460938 109.558594 650.246094 109.980469 650.988281 110.476562 C 651.730469 110.972656 652.417969 111.539062 653.050781 112.167969 C 653.683594 112.800781 654.246094 113.488281 654.746094 114.234375 C 655.242188 114.976562 655.660156 115.761719 656.003906 116.585938 C 656.34375 117.414062 656.601562 118.265625 656.777344 119.140625 C 656.953125 120.019531 657.039062 120.902344 657.039062 121.796875 L 657.039062 387.425781 C 657.039062 388.050781 657.007812 388.671875 656.949219 389.292969 C 656.886719 389.914062 656.796875 390.53125 656.675781 391.144531 C 656.550781 391.753906 656.402344 392.359375 656.21875 392.957031 C 656.039062 393.554688 655.828125 394.140625 655.589844 394.71875 C 655.351562 395.292969 655.085938 395.859375 654.789062 396.410156 C 654.496094 396.960938 654.175781 397.492188 653.828125 398.011719 C 653.480469 398.53125 653.109375 399.03125 652.714844 399.515625 C 652.320312 399.996094 651.898438 400.460938 651.457031 400.902344 C 651.015625 401.34375 650.554688 401.761719 650.074219 402.15625 C 649.589844 402.554688 649.089844 402.925781 648.570312 403.269531 C 648.050781 403.617188 647.515625 403.9375 646.96875 404.234375 C 646.417969 404.527344 645.851562 404.792969 645.277344 405.03125 C 644.699219 405.269531 644.113281 405.480469 643.515625 405.664062 C 642.917969 405.84375 642.3125 405.996094 641.703125 406.117188 C 641.089844 406.238281 640.472656 406.328125 639.851562 406.390625 C 639.230469 406.453125 638.609375 406.484375 637.984375 406.484375 L 339.253906 406.484375 C 338.359375 406.484375 337.472656 406.394531 336.597656 406.222656 C 335.71875 406.046875 334.867188 405.789062 334.042969 405.445312 C 333.21875 405.105469 332.433594 404.683594 331.6875 404.1875 C 330.945312 403.691406 330.257812 403.125 329.625 402.492188 C 328.992188 401.863281 328.429688 401.175781 327.933594 400.429688 C 327.433594 399.6875 327.015625 398.902344 326.671875 398.074219 C 326.332031 397.25 326.074219 396.398438 325.898438 395.519531 C 325.722656 394.644531 325.636719 393.757812 325.636719 392.863281 L 325.636719 302.542969 L 360.882812 302.542969 C 361.363281 302.542969 361.84375 302.519531 362.320312 302.46875 C 362.796875 302.417969 363.269531 302.34375 363.738281 302.242188 C 364.210938 302.144531 364.671875 302.019531 365.128906 301.871094 C 365.585938 301.722656 366.03125 301.550781 366.472656 301.355469 C 366.910156 301.160156 367.335938 300.945312 367.75 300.703125 C 368.167969 300.464844 368.570312 300.203125 368.957031 299.921875 C 369.347656 299.640625 369.71875 299.339844 370.074219 299.019531 C 370.433594 298.695312 370.769531 298.359375 371.09375 298.003906 C 371.414062 297.644531 371.714844 297.273438 372 296.886719 C 372.28125 296.496094 372.542969 296.097656 372.78125 295.679688 C 373.023438 295.265625 373.242188 294.839844 373.4375 294.402344 C 373.632812 293.960938 373.804688 293.515625 373.953125 293.058594 C 374.101562 292.601562 374.226562 292.140625 374.328125 291.671875 C 374.425781 291.203125 374.503906 290.730469 374.554688 290.25 C 374.605469 289.773438 374.628906 289.296875 374.632812 288.816406 C 374.632812 288.335938 374.609375 287.859375 374.558594 287.378906 C 373.84375 280.226562 367.292969 275.050781 360.101562 275.050781 Z M 325.636719 275.050781 " fill-opacity="1" fill-rule="nonzero"/></g></svg>